<?xml version="1.0" encoding="UTF-8" standalone="no"?>
<!DOCTYPE svg PUBLIC "-//W3C//DTD SVG 1.1//EN"
 "http://www.w3.org/Graphics/SVG/1.1/DTD/svg11.dtd">
<!-- Generated by graphviz version 2.50.0 (20211204.2007)
 -->
<!-- Pages: 1 -->
<svg width="98pt" height="332pt"
 viewBox="0.00 0.00 98.00 332.00" xmlns="http://www.w3.org/2000/svg" xmlns:xlink="http://www.w3.org/1999/xlink">
<g id="graph0" class="graph" transform="scale(1 1) rotate(0) translate(4 328)">
<polygon fill="white" stroke="transparent" points="-4,4 -4,-328 94,-328 94,4 -4,4"/>
<!-- 0 -->
<g id="node1" class="node">
<title>0</title>
<ellipse fill="none" stroke="black" cx="54" cy="-306" rx="18" ry="18"/>
<text text-anchor="middle" x="54" y="-302.3" font-family="Times,serif" font-size="14.00">0</text>
</g>
<!-- 0&#45;&gt;0 -->
<g id="edge1" class="edge">
<title>0&#45;&gt;0</title>
<path fill="none" stroke="black" d="M68.04,-317.76C78.91,-322.15 90,-318.23 90,-306 90,-297.59 84.76,-293.11 77.95,-292.56"/>
<polygon fill="black" stroke="black" points="77.31,-289.12 68.04,-294.24 78.49,-296.02 77.31,-289.12"/>
</g>
<!-- 1 -->
<g id="node2" class="node">
<title>1</title>
<ellipse fill="none" stroke="black" cx="18" cy="-234" rx="18" ry="18"/>
<text text-anchor="middle" x="18" y="-230.3" font-family="Times,serif" font-size="14.00">1</text>
</g>
<!-- 0&#45;&gt;1 -->
<g id="edge2" class="edge">
<title>0&#45;&gt;1</title>
<path fill="none" stroke="black" d="M42.03,-292.16C36.32,-283.52 29.9,-271.81 24.94,-261.25"/>
<polygon fill="black" stroke="black" points="28.09,-259.72 20.85,-251.98 21.69,-262.54 28.09,-259.72"/>
</g>
<!-- 2 -->
<g id="node3" class="node">
<title>2</title>
<ellipse fill="none" stroke="black" cx="54" cy="-18" rx="18" ry="18"/>
<text text-anchor="middle" x="54" y="-14.3" font-family="Times,serif" font-size="14.00">2</text>
</g>
<!-- 0&#45;&gt;2 -->
<g id="edge3" class="edge">
<title>0&#45;&gt;2</title>
<path fill="none" stroke="black" d="M49.79,-288.38C50.6,-277.98 52.97,-264.28 54,-252 60.72,-172.28 60.72,-151.72 54,-72 53.27,-63.37 51.89,-54.03 50.85,-45.63"/>
<polygon fill="black" stroke="black" points="54.32,-45.2 49.79,-35.62 47.36,-45.93 54.32,-45.2"/>
</g>
<!-- 1&#45;&gt;0 -->
<g id="edge4" class="edge">
<title>1&#45;&gt;0</title>
<path fill="none" stroke="black" d="M29.82,-247.62C35.56,-256.28 42.04,-268.07 47.05,-278.72"/>
<polygon fill="black" stroke="black" points="43.92,-280.32 51.16,-288.05 50.33,-277.49 43.92,-280.32"/>
</g>
<!-- 1&#45;&gt;1 -->
<g id="edge5" class="edge">
<title>1&#45;&gt;1</title>
<path fill="none" stroke="black" d="M32.04,-245.76C42.91,-250.15 54,-246.23 54,-234 54,-225.59 48.76,-221.11 41.95,-220.56"/>
<polygon fill="black" stroke="black" points="41.31,-217.12 32.04,-222.24 42.49,-224.02 41.31,-217.12"/>
</g>
<!-- 3 -->
<g id="node4" class="node">
<title>3</title>
<ellipse fill="none" stroke="black" cx="18" cy="-162" rx="18" ry="18"/>
<text text-anchor="middle" x="18" y="-158.3" font-family="Times,serif" font-size="14.00">3</text>
</g>
<!-- 1&#45;&gt;3 -->
<g id="edge6" class="edge">
<title>1&#45;&gt;3</title>
<path fill="none" stroke="black" d="M12.2,-216.76C11.29,-208.64 11.03,-198.59 11.43,-189.39"/>
<polygon fill="black" stroke="black" points="14.95,-189.38 12.21,-179.15 7.97,-188.86 14.95,-189.38"/>
</g>
<!-- 2&#45;&gt;0 -->
<g id="edge7" class="edge">
<title>2&#45;&gt;0</title>
<path fill="none" stroke="black" d="M64.41,-32.87C68.16,-43.51 70.87,-58.61 72,-72 78.72,-151.72 78.72,-172.28 72,-252 71.18,-261.73 69.53,-272.36 67.24,-281.53"/>
<polygon fill="black" stroke="black" points="63.88,-280.55 64.41,-291.13 70.6,-282.53 63.88,-280.55"/>
</g>
<!-- 2&#45;&gt;2 -->
<g id="edge8" class="edge">
<title>2&#45;&gt;2</title>
<path fill="none" stroke="black" d="M68.04,-29.76C78.91,-34.15 90,-30.23 90,-18 90,-9.59 84.76,-5.11 77.95,-4.56"/>
<polygon fill="black" stroke="black" points="77.31,-1.12 68.04,-6.24 78.49,-8.02 77.31,-1.12"/>
</g>
<!-- 4 -->
<g id="node5" class="node">
<title>4</title>
<ellipse fill="none" stroke="black" cx="18" cy="-90" rx="18" ry="18"/>
<text text-anchor="middle" x="18" y="-86.3" font-family="Times,serif" font-size="14.00">4</text>
</g>
<!-- 2&#45;&gt;4 -->
<g id="edge9" class="edge">
<title>2&#45;&gt;4</title>
<path fill="none" stroke="black" d="M51.15,-35.98C47.28,-45.46 41.29,-57.36 35.35,-67.48"/>
<polygon fill="black" stroke="black" points="32.26,-65.82 29.97,-76.16 38.21,-69.51 32.26,-65.82"/>
</g>
<!-- 3&#45;&gt;1 -->
<g id="edge10" class="edge">
<title>3&#45;&gt;1</title>
<path fill="none" stroke="black" d="M23.79,-179.15C24.71,-187.26 24.97,-197.3 24.57,-206.51"/>
<polygon fill="black" stroke="black" points="21.06,-206.53 23.8,-216.76 28.04,-207.05 21.06,-206.53"/>
</g>
<!-- 3&#45;&gt;3 -->
<g id="edge11" class="edge">
<title>3&#45;&gt;3</title>
<path fill="none" stroke="black" d="M32.04,-173.76C42.91,-178.15 54,-174.23 54,-162 54,-153.59 48.76,-149.11 41.95,-148.56"/>
<polygon fill="black" stroke="black" points="41.31,-145.12 32.04,-150.24 42.49,-152.02 41.31,-145.12"/>
</g>
<!-- 3&#45;&gt;4 -->
<g id="edge12" class="edge">
<title>3&#45;&gt;4</title>
<path fill="none" stroke="black" d="M12.2,-144.76C11.29,-136.64 11.03,-126.59 11.43,-117.39"/>
<polygon fill="black" stroke="black" points="14.95,-117.38 12.21,-107.15 7.97,-116.86 14.95,-117.38"/>
</g>
<!-- 4&#45;&gt;2 -->
<g id="edge13" class="edge">
<title>4&#45;&gt;2</title>
<path fill="none" stroke="black" d="M20.84,-72.05C24.73,-62.51 30.78,-50.51 36.76,-40.33"/>
<polygon fill="black" stroke="black" points="39.87,-41.96 42.18,-31.62 33.92,-38.26 39.87,-41.96"/>
</g>
<!-- 4&#45;&gt;3 -->
<g id="edge14" class="edge">
<title>4&#45;&gt;3</title>
<path fill="none" stroke="black" d="M23.79,-107.15C24.71,-115.26 24.97,-125.3 24.57,-134.51"/>
<polygon fill="black" stroke="black" points="21.06,-134.53 23.8,-144.76 28.04,-135.05 21.06,-134.53"/>
</g>
<!-- 4&#45;&gt;4 -->
<g id="edge15" class="edge">
<title>4&#45;&gt;4</title>
<path fill="none" stroke="black" d="M32.04,-101.76C42.91,-106.15 54,-102.23 54,-90 54,-81.59 48.76,-77.11 41.95,-76.56"/>
<polygon fill="black" stroke="black" points="41.31,-73.12 32.04,-78.24 42.49,-80.02 41.31,-73.12"/>
</g>
</g>
</svg>
