<?xml version="1.0" encoding="UTF-8" standalone="no"?>
<!DOCTYPE svg PUBLIC "-//W3C//DTD SVG 1.1//EN"
 "http://www.w3.org/Graphics/SVG/1.1/DTD/svg11.dtd">
<!-- Generated by graphviz version 2.50.0 (20211204.2007)
 -->
<!-- Pages: 1 -->
<svg width="113pt" height="392pt"
 viewBox="0.00 0.00 113.10 392.48" xmlns="http://www.w3.org/2000/svg" xmlns:xlink="http://www.w3.org/1999/xlink">
<g id="graph0" class="graph" transform="scale(1 1) rotate(0) translate(4 388.48)">
<polygon fill="white" stroke="transparent" points="-4,4 -4,-388.48 109.1,-388.48 109.1,4 -4,4"/>
<!-- 0 -->
<g id="node1" class="node">
<title>0</title>
<ellipse fill="orange" stroke="orange" cx="63.05" cy="-360.43" rx="24.1" ry="24.1"/>
<text text-anchor="middle" x="63.05" y="-356.73" font-family="Times,serif" font-size="14.00">0*0</text>
</g>
<!-- 0&#45;&gt;0 -->
<g id="edge1" class="edge">
<title>0&#45;&gt;0</title>
<path fill="none" stroke="black" d="M82.51,-375.2C94.15,-378.48 105.1,-373.56 105.1,-360.43 105.1,-351.41 99.92,-346.26 92.9,-344.99"/>
<polygon fill="black" stroke="black" points="92.26,-341.53 82.51,-345.67 92.72,-348.51 92.26,-341.53"/>
</g>
<!-- 1 -->
<g id="node2" class="node">
<title>1</title>
<ellipse fill="orange" stroke="orange" cx="24.05" cy="-276.34" rx="24.1" ry="24.1"/>
<text text-anchor="middle" x="24.05" y="-272.64" font-family="Times,serif" font-size="14.00">1*1</text>
</g>
<!-- 0&#45;&gt;1 -->
<g id="edge2" class="edge">
<title>0&#45;&gt;1</title>
<path fill="none" stroke="black" d="M48.44,-340.8C43.12,-331.53 37.39,-320.06 32.69,-309.42"/>
<polygon fill="black" stroke="black" points="35.82,-307.84 28.7,-299.99 29.37,-310.56 35.82,-307.84"/>
</g>
<!-- 2 -->
<g id="node3" class="node">
<title>2</title>
<ellipse fill="orange" stroke="orange" cx="63.05" cy="-24.05" rx="24.1" ry="24.1"/>
<text text-anchor="middle" x="63.05" y="-20.35" font-family="Times,serif" font-size="14.00">2*2</text>
</g>
<!-- 0&#45;&gt;2 -->
<g id="edge3" class="edge">
<title>0&#45;&gt;2</title>
<path fill="none" stroke="black" d="M60.68,-336.32C62.3,-325.48 64.84,-312.35 66.05,-300.38 75.67,-204.74 75.67,-179.74 66.05,-84.1 65.19,-75.59 63.66,-66.49 62.26,-58.05"/>
<polygon fill="black" stroke="black" points="65.72,-57.48 60.68,-48.16 58.8,-58.59 65.72,-57.48"/>
</g>
<!-- 1&#45;&gt;0 -->
<g id="edge4" class="edge">
<title>1&#45;&gt;0</title>
<path fill="none" stroke="black" d="M38.49,-295.67C43.81,-304.92 49.56,-316.41 54.29,-327.08"/>
<polygon fill="black" stroke="black" points="51.19,-328.72 58.31,-336.56 57.63,-325.99 51.19,-328.72"/>
</g>
<!-- 1&#45;&gt;1 -->
<g id="edge5" class="edge">
<title>1&#45;&gt;1</title>
<path fill="none" stroke="black" d="M43.51,-291.1C55.15,-294.38 66.1,-289.46 66.1,-276.34 66.1,-267.31 60.92,-262.17 53.9,-260.9"/>
<polygon fill="black" stroke="black" points="53.26,-257.43 43.51,-261.57 53.72,-264.42 53.26,-257.43"/>
</g>
<!-- 3 -->
<g id="node4" class="node">
<title>3</title>
<ellipse fill="orange" stroke="orange" cx="24.05" cy="-192.24" rx="24.1" ry="24.1"/>
<text text-anchor="middle" x="24.05" y="-188.54" font-family="Times,serif" font-size="14.00">3*3</text>
</g>
<!-- 1&#45;&gt;3 -->
<g id="edge6" class="edge">
<title>1&#45;&gt;3</title>
<path fill="none" stroke="black" d="M17.96,-252.9C17.32,-244.58 17.15,-234.95 17.42,-225.9"/>
<polygon fill="black" stroke="black" points="20.93,-225.81 17.96,-215.65 13.94,-225.45 20.93,-225.81"/>
</g>
<!-- 2&#45;&gt;0 -->
<g id="edge7" class="edge">
<title>2&#45;&gt;0</title>
<path fill="none" stroke="black" d="M75.92,-44.58C79.71,-56.01 82.71,-70.77 84.05,-84.1 93.67,-179.74 93.67,-204.74 84.05,-300.38 83.06,-310.17 81.18,-320.73 78.75,-330.17"/>
<polygon fill="black" stroke="black" points="75.36,-329.32 75.92,-339.9 82.08,-331.28 75.36,-329.32"/>
</g>
<!-- 2&#45;&gt;2 -->
<g id="edge8" class="edge">
<title>2&#45;&gt;2</title>
<path fill="none" stroke="black" d="M82.51,-38.81C94.15,-42.09 105.1,-37.17 105.1,-24.05 105.1,-15.02 99.92,-9.88 92.9,-8.61"/>
<polygon fill="black" stroke="black" points="92.26,-5.14 82.51,-9.28 92.72,-12.13 92.26,-5.14"/>
</g>
<!-- 4 -->
<g id="node5" class="node">
<title>4</title>
<ellipse fill="orange" stroke="orange" cx="24.05" cy="-108.14" rx="24.1" ry="24.1"/>
<text text-anchor="middle" x="24.05" y="-104.44" font-family="Times,serif" font-size="14.00">4*4</text>
</g>
<!-- 2&#45;&gt;4 -->
<g id="edge9" class="edge">
<title>2&#45;&gt;4</title>
<path fill="none" stroke="black" d="M58.39,-47.7C54.46,-57.53 49.05,-69.13 43.62,-79.47"/>
<polygon fill="black" stroke="black" points="40.4,-78.06 38.66,-88.51 46.53,-81.43 40.4,-78.06"/>
</g>
<!-- 3&#45;&gt;1 -->
<g id="edge10" class="edge">
<title>3&#45;&gt;1</title>
<path fill="none" stroke="black" d="M30.14,-215.65C30.77,-223.97 30.95,-233.59 30.67,-242.64"/>
<polygon fill="black" stroke="black" points="27.16,-242.73 30.14,-252.9 34.15,-243.1 27.16,-242.73"/>
</g>
<!-- 3&#45;&gt;3 -->
<g id="edge11" class="edge">
<title>3&#45;&gt;3</title>
<path fill="none" stroke="black" d="M43.51,-207C55.15,-210.29 66.1,-205.36 66.1,-192.24 66.1,-183.22 60.92,-178.07 53.9,-176.8"/>
<polygon fill="black" stroke="black" points="53.26,-173.33 43.51,-177.47 53.72,-180.32 53.26,-173.33"/>
</g>
<!-- 3&#45;&gt;4 -->
<g id="edge12" class="edge">
<title>3&#45;&gt;4</title>
<path fill="none" stroke="black" d="M17.96,-168.81C17.32,-160.48 17.15,-150.86 17.42,-141.8"/>
<polygon fill="black" stroke="black" points="20.93,-141.72 17.96,-131.55 13.94,-141.35 20.93,-141.72"/>
</g>
<!-- 4&#45;&gt;2 -->
<g id="edge13" class="edge">
<title>4&#45;&gt;2</title>
<path fill="none" stroke="black" d="M28.79,-84.28C32.75,-74.4 38.19,-62.75 43.64,-52.42"/>
<polygon fill="black" stroke="black" points="46.86,-53.83 48.61,-43.38 40.72,-50.46 46.86,-53.83"/>
</g>
<!-- 4&#45;&gt;3 -->
<g id="edge14" class="edge">
<title>4&#45;&gt;3</title>
<path fill="none" stroke="black" d="M30.14,-131.55C30.77,-139.87 30.95,-149.49 30.67,-158.55"/>
<polygon fill="black" stroke="black" points="27.16,-158.64 30.14,-168.81 34.15,-159 27.16,-158.64"/>
</g>
<!-- 4&#45;&gt;4 -->
<g id="edge15" class="edge">
<title>4&#45;&gt;4</title>
<path fill="none" stroke="black" d="M43.51,-122.91C55.15,-126.19 66.1,-121.27 66.1,-108.14 66.1,-99.12 60.92,-93.97 53.9,-92.71"/>
<polygon fill="black" stroke="black" points="53.26,-89.24 43.51,-93.38 53.72,-96.22 53.26,-89.24"/>
</g>
</g>
</svg>
